<svg xmlns="http://www.w3.org/2000/svg" width="65" height="52" viewBox="0 0 65 52" fill="none">
  <!-- Icon paths only -->
  <path d="M61.273 23.8421L57.817 22.8301L52.31 25.2201L53.815 29.3511L61.273 23.8421Z" fill="#0000ef"></path>
  <path d="M56.724 22.5899L49.8 21.1499L52.02 24.6299L56.724 22.5899Z" fill="#0000ef"></path>
  <path d="M66.886 22.2151L67.948 19.8271L59.841 19.3701L58.29 22.2901L62.014 23.3821L66.886 22.2151Z" fill="#0000ef"></path>
  <path d="M59.219 18.7708L58.884 16.5098L53.84 17.4978L55.455 19.3318L59.219 18.7708Z" fill="#0000ef"></path>
  <path d="M55.96 19.9022L57.71 21.8922L59.003 19.4502L55.96 19.9022Z" fill="#0000ef"></path>
  <path d="M48.816 20.9022L40.54 15.1802L43.28 25.1882L51.274 24.7602L48.816 20.9022Z" fill="#0000ef"></path>
  <path d="M49.25 20.3901L56.837 21.9621L39.59 2.37012L40.305 14.2001L49.25 20.3901Z" fill="#0000ef"></path>
  <path d="M72.69 22.5088L74.287 22.3888L74.305 21.5498L72.928 21.9378L72.69 22.5088Z" fill="#0000ef"></path>
  <path d="M72.92 21.2702L74 20.9602L70.727 18.2002L69.11 19.4922L72.92 21.2702Z" fill="#0000ef"></path>
  <path d="M39.27 35.02L40.646 35.973L44.148 30.64L42.784 26L39.27 35.02Z" fill="#0000ef"></path>
  <path d="M72.263 21.7028L70.41 20.8398L72.013 22.2918L72.263 21.7028Z" fill="#0000ef"></path>
  <path d="M50.832 25.4302L43.47 25.8182L44.726 30.1042L50.832 25.4302Z" fill="#0000ef"></path>
  <path d="M68.345 19.2068L69.883 17.9728L59.6 16.5098L59.935 18.7378L68.345 19.2068Z" fill="#0000ef"></path>
  <path d="M68.594 20.1099L67.61 22.3219L70.865 23.6419L71.657 22.8819L68.594 20.1099Z" fill="#0000ef"></path>
  <path d="M71.48 23.9841L73.521 25.3741L72.105 23.3901L71.48 23.9841Z" fill="#0000ef"></path>
  <path d="M45.16 30.6121L52.79 34.2241L53.28 29.9221L51.705 25.6001L45.16 30.6121Z" fill="#0000ef"></path>
  <path d="M53.985 30.0598L53.54 33.9298L62.048 26.9058L61.726 24.3398L53.985 30.0598Z" fill="#0000ef"></path>
  <path d="M74.67 26.1878L74.842 27.2388L75.473 26.0098L74.67 26.1878Z" fill="#0000ef"></path>
  <path d="M74.399 23.02L72.77 23.146L74.489 25.546L75.382 25.347L74.399 23.02Z" fill="#0000ef"></path>
  <path d="M62.4 23.9518L62.729 26.5578L70.033 24.0028L67.123 22.8198L62.4 23.9518Z" fill="#0000ef"></path>
  <path d="M39.723 14.8701L23.7 23.7861L42.541 25.1631L39.723 14.8701Z" fill="#0000ef"></path>
  <path d="M41.32 36.2101L43.217 36.4841L52.066 34.6091L44.658 31.1001L41.32 36.2101Z" fill="#0000ef"></path>
  <path d="M38.933 35.6001L33.36 43.8311L36.487 47.3511L40.33 36.5711L38.933 35.6001Z" fill="#0000ef"></path>
  <path d="M43.72 48.0538L46.527 45.6018L43.38 37.0698L43.72 48.0538Z" fill="#0000ef"></path>
  <path d="M41.007 36.7998L37.03 47.9488L40.003 51.3048L43.02 48.6648L42.667 37.0508L41.007 36.7998Z" fill="#0000ef"></path>
  <path d="M39.562 13.9031L26.55 9.91012V8.47512H29.369V6.26312H26.937V3.83312H29.164V2.37012H38.874L39.562 13.9031ZM32.568 4.16012H31.114V5.45212H32.568V4.16012ZM36.312 6.37712H34.652V7.37712H32.792V9.45712H35.134V7.84512H36.312V6.37712Z" fill="#0000ef"></path>
  <path d="M18.24 8.3559H16.36V10.7329H19.036V9.1959H20.736V6.3439H18.696V5.1499H16.957V6.6999H18.239L18.24 8.3559Z" fill="#0000ef"></path>
  <path d="M16.425 13.2202H13.58V15.7522H16.425V13.2202Z" fill="#0000ef"></path>
  <path d="M8.268 8.47021H5.92V10.5552H8.268V8.47021Z" fill="#0000ef"></path>
  <path d="M19.782 16.9199H17.24V19.1779H19.782V16.9199Z" fill="#0000ef"></path>
  <path d="M5.278 2.97998H2.93V5.06498H5.278V2.97998Z" fill="#0000ef"></path>
  <path d="M6.367 0.299805H4.86V1.6378H6.367V0.299805Z" fill="#0000ef"></path>
  <path d="M1.562 1.68018H0.5V2.62318H1.562V1.68018Z" fill="#0000ef"></path>
  <path d="M21.05 3.55994V5.44694H23.174V4.29894H25.908V1.43994H22.691V3.55994H21.05Z" fill="#0000ef"></path>
  <path d="M20.264 1.418H21.237V0H19.647V0.954H18.09V2.88H20.264V1.418Z" fill="#0000ef"></path>
  <path d="M11.306 11.966H14.556V9.08002H11.95V7.77002H9.82V9.66302H11.306V11.966Z" fill="#0000ef"></path>
  <path d="M25.547 7.08008H22.4V9.87508H25.547V7.08008Z" fill="#0000ef"></path>
  <path d="M13.323 0.310059H11.74V1.71606H13.323V0.310059Z" fill="#0000ef"></path>
  <path d="M9.82 1.02002H7.78V2.83102H9.82V1.02002Z" fill="#0000ef"></path>
  <path d="M13.856 7.76706H15.6V5.85306H14.422V4.72806H16.436V2.31006H13.47V4.12706H11.74V6.37406H13.856V7.76706Z" fill="#0000ef"></path>
  <path d="M9.823 4.20996H7.1V6.62796H9.823V4.20996Z" fill="#0000ef"></path>
  <path d="M12.019 13.5801H10.41V15.0031H12.019V13.5801Z" fill="#0000ef"></path>
  <path d="M22.658 23.6278L20.413 21.3928H19.1V20.0858L19.048 20.0338H23.472V17.9358H24.273V16.5258H22.684V17.5638H21.422V15.8618H19.66V14.3518H17.71V11.9758H19.956V10.5698H22.077V12.4608H20.378V13.6318H22.368V14.8778H25.773V13.3678H24.421V11.4378H26.551V10.5908L39.12 14.4508L22.658 23.6278ZM31.02 15.2258H33.118V13.3628H31.02V15.2258ZM25.323 19.3878H27.048V18.3978H29.083V16.1528H26.555V17.8558H25.319L25.323 19.3878Z" fill="#0000ef"></path>
</svg> 