<svg xmlns="http://www.w3.org/2000/svg" width="153" height="52" viewBox="0 0 153 52" fill="none"><path d="M61.273 23.8421L57.817 22.8301L52.31 25.2201L53.815 29.3511L61.273 23.8421Z" fill="white"></path><path d="M56.724 22.5899L49.8 21.1499L52.02 24.6299L56.724 22.5899Z" fill="white"></path><path d="M66.886 22.2151L67.948 19.8271L59.841 19.3701L58.29 22.2901L62.014 23.3821L66.886 22.2151Z" fill="white"></path><path d="M59.219 18.7708L58.884 16.5098L53.84 17.4978L55.455 19.3318L59.219 18.7708Z" fill="white"></path><path d="M55.96 19.9022L57.71 21.8922L59.003 19.4502L55.96 19.9022Z" fill="white"></path><path d="M48.816 20.9022L40.54 15.1802L43.28 25.1882L51.274 24.7602L48.816 20.9022Z" fill="white"></path><path d="M49.25 20.3901L56.837 21.9621L39.59 2.37012L40.305 14.2001L49.25 20.3901Z" fill="white"></path><path d="M72.69 22.5088L74.287 22.3888L74.305 21.5498L72.928 21.9378L72.69 22.5088Z" fill="white"></path><path d="M72.92 21.2702L74 20.9602L70.727 18.2002L69.11 19.4922L72.92 21.2702Z" fill="white"></path><path d="M39.27 35.02L40.646 35.973L44.148 30.64L42.784 26L39.27 35.02Z" fill="white"></path><path d="M72.263 21.7028L70.41 20.8398L72.013 22.2918L72.263 21.7028Z" fill="white"></path><path d="M50.832 25.4302L43.47 25.8182L44.726 30.1042L50.832 25.4302Z" fill="white"></path><path d="M68.345 19.2068L69.883 17.9728L59.6 16.5098L59.935 18.7378L68.345 19.2068Z" fill="white"></path><path d="M68.594 20.1099L67.61 22.3219L70.865 23.6419L71.657 22.8819L68.594 20.1099Z" fill="white"></path><path d="M71.48 23.9841L73.521 25.3741L72.105 23.3901L71.48 23.9841Z" fill="white"></path><path d="M45.16 30.6121L52.79 34.2241L53.28 29.9221L51.705 25.6001L45.16 30.6121Z" fill="white"></path><path d="M53.985 30.0598L53.54 33.9298L62.048 26.9058L61.726 24.3398L53.985 30.0598Z" fill="white"></path><path d="M74.67 26.1878L74.842 27.2388L75.473 26.0098L74.67 26.1878Z" fill="white"></path><path d="M74.399 23.02L72.77 23.146L74.489 25.546L75.382 25.347L74.399 23.02Z" fill="white"></path><path d="M62.4 23.9518L62.729 26.5578L70.033 24.0028L67.123 22.8198L62.4 23.9518Z" fill="white"></path><path d="M39.723 14.8701L23.7 23.7861L42.541 25.1631L39.723 14.8701Z" fill="white"></path><path d="M41.32 36.2101L43.217 36.4841L52.066 34.6091L44.658 31.1001L41.32 36.2101Z" fill="white"></path><path d="M38.933 35.6001L33.36 43.8311L36.487 47.3511L40.33 36.5711L38.933 35.6001Z" fill="white"></path><path d="M43.72 48.0538L46.527 45.6018L43.38 37.0698L43.72 48.0538Z" fill="white"></path><path d="M41.007 36.7998L37.03 47.9488L40.003 51.3048L43.02 48.6648L42.667 37.0508L41.007 36.7998Z" fill="white"></path><path d="M39.562 13.9031L26.55 9.91012V8.47512H29.369V6.26312H26.937V3.83312H29.164V2.37012H38.874L39.562 13.9031ZM32.568 4.16012H31.114V5.45212H32.568V4.16012ZM36.312 6.37712H34.652V7.37712H32.792V9.45712H35.134V7.84512H36.312V6.37712Z" fill="white"></path><path d="M18.24 8.3559H16.36V10.7329H19.036V9.1959H20.736V6.3439H18.696V5.1499H16.957V6.6999H18.239L18.24 8.3559Z" fill="white"></path><path d="M16.425 13.2202H13.58V15.7522H16.425V13.2202Z" fill="white"></path><path d="M8.268 8.47021H5.92V10.5552H8.268V8.47021Z" fill="white"></path><path d="M19.782 16.9199H17.24V19.1779H19.782V16.9199Z" fill="white"></path><path d="M5.278 2.97998H2.93V5.06498H5.278V2.97998Z" fill="white"></path><path d="M6.367 0.299805H4.86V1.6378H6.367V0.299805Z" fill="white"></path><path d="M1.562 1.68018H0.5V2.62318H1.562V1.68018Z" fill="white"></path><path d="M21.05 3.55994V5.44694H23.174V4.29894H25.908V1.43994H22.691V3.55994H21.05Z" fill="white"></path><path d="M20.264 1.418H21.237V0H19.647V0.954H18.09V2.88H20.264V1.418Z" fill="white"></path><path d="M11.306 11.966H14.556V9.08002H11.95V7.77002H9.82V9.66302H11.306V11.966Z" fill="white"></path><path d="M25.547 7.08008H22.4V9.87508H25.547V7.08008Z" fill="white"></path><path d="M13.323 0.310059H11.74V1.71606H13.323V0.310059Z" fill="white"></path><path d="M9.82 1.02002H7.78V2.83102H9.82V1.02002Z" fill="white"></path><path d="M13.856 7.76706H15.6V5.85306H14.422V4.72806H16.436V2.31006H13.47V4.12706H11.74V6.37406H13.856V7.76706Z" fill="white"></path><path d="M9.823 4.20996H7.1V6.62796H9.823V4.20996Z" fill="white"></path><path d="M12.019 13.5801H10.41V15.0031H12.019V13.5801Z" fill="white"></path><path d="M22.658 23.6278L20.413 21.3928H19.1V20.0858L19.048 20.0338H23.472V17.9358H24.273V16.5258H22.684V17.5638H21.422V15.8618H19.66V14.3518H17.71V11.9758H19.956V10.5698H22.077V12.4608H20.378V13.6318H22.368V14.8778H25.773V13.3678H24.421V11.4378H26.551V10.5908L39.12 14.4508L22.658 23.6278ZM31.02 15.2258H33.118V13.3628H31.02V15.2258ZM25.323 19.3878H27.048V18.3978H29.083V16.1528H26.555V17.8558H25.319L25.323 19.3878Z" fill="white"></path><path d="M74.492 43.2842H66.12L64.401 45.7522H61.3L68.312 35.8362C68.512 35.5462 68.77 35.2912 69.071 35.0812C69.448 34.8622 69.895 34.7582 70.345 34.7842C70.79 34.7592 71.233 34.8642 71.605 35.0812C71.908 35.2892 72.165 35.5452 72.365 35.8362L79.348 45.7522H76.23L74.492 43.2842ZM67.38 41.4422H73.224L70.3 37.2072L67.38 41.4422Z" fill="white"></path><path d="M86.932 45.7638C86.1892 45.7779 85.4469 45.7125 84.718 45.5688C84.2035 45.4747 83.7188 45.2594 83.304 44.9408C82.9459 44.6467 82.6834 44.2526 82.55 43.8088C82.3906 43.2478 82.3171 42.6658 82.332 42.0828V35.0298H85.008V41.9848C85.002 42.2528 85.035 42.5198 85.105 42.7808C85.162 42.9838 85.283 43.1688 85.453 43.3138C85.641 43.4678 85.873 43.5738 86.123 43.6218C86.468 43.6918 86.822 43.7218 87.176 43.7148H94.352V45.7608L86.932 45.7638Z" fill="white"></path><path d="M100.957 42.697V45.766H98.26V35.032H107.938C108.664 35.019 109.388 35.079 110.1 35.21C110.616 35.304 111.097 35.51 111.502 35.81C111.862 36.099 112.124 36.473 112.255 36.89C112.413 37.411 112.487 37.95 112.474 38.49V39.416C112.489 39.9537 112.417 40.4902 112.261 41.005C112.137 41.398 111.881 41.75 111.528 42.012C111.112 42.2947 110.636 42.4775 110.138 42.546C109.412 42.6578 108.678 42.7077 107.944 42.695L100.957 42.697ZM109.785 38.587C109.785 38.01 109.643 37.615 109.367 37.411C109.09 37.206 108.587 37.096 107.866 37.096H100.956V40.764H107.898C108.608 40.764 109.1 40.667 109.373 40.473C109.645 40.279 109.773 39.896 109.773 39.33V38.587H109.785Z" fill="white"></path><path d="M128.101 45.7638V41.4838H119.247V45.7638H116.55V35.0298H119.247V39.4028H128.107V35.0298H130.794V45.7638H128.101Z" fill="white"></path><path d="M147.636 43.2931H139.27L137.553 45.7612H134.45L141.462 35.8452C141.662 35.5552 141.92 35.3002 142.221 35.0912C142.515 34.8912 142.941 34.7941 143.495 34.7941C143.94 34.7691 144.382 34.8742 144.755 35.0912C145.058 35.2992 145.315 35.5552 145.515 35.8452L152.496 45.7612H149.387L147.636 43.2931ZM140.532 41.4522H146.382L143.459 37.2171L140.532 41.4522Z" fill="white"></path></svg>